The Thin Man (1934) B & W

Director: W.S. Van Dyke

The Thin Man is a 1934 American comic detective film starring William Powell and Myrna Loy as Nick and Nora Charles, a flirtatious married couple who banter wittily as they solve crimes with ease. Nick is a hard drinking retired detective and Nora a wealthy heiress. Their dog, the Wire-Haired Fox Terrier Asta, played by Skippy, was also a popular character.

Completed in 1934 and nominated for the Academy Award for Best Picture, the film was directed by W.S. Van Dyke from a script by Albert Hackett and Frances Goodrich; the screenplay was based on the mystery novel The Thin Man by Dashiell Hammett, supposedly based on his relationship with playwright Lillian Hellman. Also appearing in the film were Maureen O'Sullivan, Nat Pendleton, Minna Gombell, Cesar Romero and Porter Hall.

The "Thin Man" of the title was actually not Nick Charles, but the man he was initially hired to find, Clyde Wynant. (Partway through the film, Nick Charles characterizes Wynant as a "thin man with white hair".) However, the "Thin Man" moniker was thought by many viewers to refer to Nick Charles, and after a time, it was used in the titles of the sequels as if it did. Nevertheless, at no time in this or any other "Thin Man" film is Nick Charles called or characterized as a thin man.

In 1997, the film was added to the United States National Film Registry having been deemed "culturally, historically, or aesthetically significant."

Media Info:
General
Complete name                    : J:\Seeding\The Thin Man (1934)[DVDRip][big_dad_e™]\The Thin Man (1934)[DVDRip][big_dad_e™].AVI
Format                           : AVI
Format/Info                      : Audio Video Interleave
File size                        : 1.16 GiB
Duration                         : 1h 30mn
Overall bit rate                 : 1 830 Kbps

Video
ID                               : 0
Format                           : MPEG-4 Visual
Format profile                   : Simple@L3
Format settings, BVOP            : No
Format settings, QPel            : No
Format settings, GMC             : No warppoints
Format settings, Matrix          : Default (H.263)
Codec ID                         : XVID
Codec ID/Hint                    : XviD
Duration                         : 1h 30mn
Bit rate                         : 1 497 Kbps
Width                            : 720 pixels
Height                           : 480 pixels
Display aspect ratio             : 4:3
Frame rate                       : 23.976 fps
Standard                         : NTSC
Color space                      : YUV
Chroma subsampling               : 4:2:0
Bit depth                        : 8 bits
Scan type                        : Progressive
Bits/(Pixel*Frame)               : 0.181
Stream size                      : 973 MiB (82%)
Writing library                  : XviD 

Audio
ID                               : 1
Format                           : MPEG Audio
Format version                   : Version 1
Format profile                   : Layer 3
Mode                             : Joint stereo
Mode extension                   : MS Stereo
Codec ID                         : 55
Codec ID/Hint                    : MP3
Duration                         : 1h 30mn
Bit rate mode                    : Constant
Bit rate                         : 320 Kbps
Channel(s)                       : 2 channels
Sampling rate                    : 48.0 KHz
Stream size                      : 208 MiB (17%)
Alignment                        : Split accross interleaves
Interleave, duration             : 24 ms (0.58 video frame)
Interleave, preload duration     : 24 ms
Writing library                  : LAME3.98

File Scan:
Malwarebytes' Anti-Malware 1.50.1.1100
www.malwarebytes.org

Database version: 5891
2/27/2011 2:48:12 AM
mbam-log-2011-02-27 (02-48-12).txt

Scan type: Quick scan
Objects scanned: 5
Time elapsed: 47 second(s)

Memory Processes Infected: 0
Memory Modules Infected: 0
Registry Keys Infected: 0
Registry Values Infected: 0
Registry Data Items Infected: 0
Folders Infected: 0
Files Infected: 0

Memory Processes Infected:
(No malicious items detected)

Memory Modules Infected:
(No malicious items detected)

Registry Keys Infected:
(No malicious items detected)

Registry Values Infected:
(No malicious items detected)

Registry Data Items Infected:
(No malicious items detected)

Folders Infected:
(No malicious items detected)

Files Infected:
(No malicious items detected)

When using TPB please read these important notes:
  
01- Anti-malware apps may warn about keygens, patches, cracks, etc., because of 
    their capabilities, (generating codes, etc.). Sometimes they're added to 
    the virus/spyware database and will be detected as malware. If you don't trust
    the keygens, patches, cracks, etc., don't use them. 
    
02- Before running .exe-files, keygens, patches, cracks, etc., always check first 
    if they can be unpacked. Often some third party added a virus to the 
    original file, repacked it and uploaded it again.

03- Letting anti-malware apps send scan results to their companies can cause
    keygens, patches, cracks, etc., to be added to their virus-database.

04- Firewalls which are set to automatically determine connections will allow 
    apps & malware!. Avoid this by manually configuring your firewall.

05- Usually (new) torrents with many downloads and seeders in a brief period is
    suspicious! Torrents with the Skull & Crossbones icon are trusted.

06- Some people use multiple accounts and post fake comments 
    and/or files trying to spread confusion. They seldom seriously
    comment or have any torrents, or a just a few to look passable.

07- Clicking on unknown links can cause malware to be installed on your machine.
  
08- In general often there are more fake and negative comments than reliable and
    positive comments.

09- In some countries uploading/downloading copyright protected material is 
    forbidden, but showing some appreciation to reliable up-loaders is not.

10- Posting fake and negative comments or fake/infected uploads on TPB can result
    in getting banned from TPB!

Requests?  Find me on SuprBay. http://forum.suprbay.org
 

For reporting bad or suspicious torrents:  
http://forum.suprbay.org/forumdisplay.php?fid=29

For more of my torrents: 
https://thepiratebay.org/user/big_dad_e/  (Secured)

All torrents scanned with:
Norton Anti-virus
Malwarebytes' Anti-malware
 
http://www.pirate-party.us/

ALWAYS SEED & THANKS SEEDERS!